# xmcd
#
# Track frame offsets: 
#        151
#        17123
#        35980
#        46744
#        64331
#        81563
#        102557
#        122155
#        140810
#        155976
#        175056
#        194899
#        211051
#        239739
#
# Disc length: 3453 seconds
#
# Revision: 1
# Processed by: cddbd v1.5.2PL0 Copyright (c) Steve Scherf et al.
# Submitted via: ExactAudioCopy v0.90b4
#
DISCID=e20d7b0e
DTITLE=Teresa James - The Rythym Method
DYEAR=2004
DGENRE=Blues
TTITLE0=Nobody Rings My Bell
TTITLE1=Can't Say No
TTITLE2=Sure Gonna Make You Feel Good
TTITLE3=Louisiana Moon
TTITLE4=That's Cats In The Doghouse
TTITLE5=Better Off With The Blues
TTITLE6=Back Into Her Heart
TTITLE7=Just When I thought
TTITLE8=That Good Man's Gone
TTITLE9=Something's Broke
TTITLE10=Going With The Flow
TTITLE11=The Same Man
TTITLE12=I Love You More Then You'll Ever Know
TTITLE13=Big Top Hat
EXTD=
EXTT0=
EXTT1=
EXTT2=
EXTT3=
EXTT4=
EXTT5=
EXTT6=
EXTT7=
EXTT8=
EXTT9=
EXTT10=
EXTT11=
EXTT12=
EXTT13=
PLAYORDER=
